<svg xmlns="http://www.w3.org/2000/svg" width="1200" height="700" viewBox="0 0 1200 700"><rect width="1200" height="700" fill="#0f1020"/><text x="40" y="28" font-family="Nunito Variable, Segoe UI, system-ui, sans-serif" font-size="16" fill="#b3b7d9">B12 USA catalog check: usa.json routes at Rob217 city positions (validation view, not game art)</text><line x1="914.2" y1="432.5" x2="1016.6" y2="439.0" stroke="#a7adc6" stroke-width="3.6" stroke-linecap="round" opacity="0.92"/><line x1="914.2" y1="432.5" x2="1052.1" y2="582.3" stroke="#4cc9f0" stroke-width="6.0" stroke-linecap="round" opacity="0.92"/><line x1="914.2" y1="432.5" x2="858.7" y2="400.4" stroke="#a7adc6" stroke-width="2.8" stroke-linecap="round" opacity="0.92"/><line x1="918.6" y1="436.6" x2="812.8" y2="552.3" stroke="#ff9f43" stroke-width="5.2" stroke-linecap="round" opacity="0.92"/><line x1="909.8" y1="428.5" x2="803.9" y2="544.2" stroke="#ffd166" stroke-width="5.2" stroke-linecap="round" opacity="0.92"/><line x1="910.7" y1="427.7" x2="982.5" y2="374.9" stroke="#a7adc6" stroke-width="3.6" stroke-linecap="round" opacity="0.92"/><line x1="917.8" y1="437.4" x2="989.6" y2="384.5" stroke="#a7adc6" stroke-width="3.6" stroke-linecap="round" opacity="0.92"/><line x1="1095.3" y1="173.0" x2="1017.1" y2="120.8" stroke="#a7adc6" stroke-width="3.6" stroke-linecap="round" opacity="0.92"/><line x1="1101.9" y1="163.0" x2="1023.8" y2="110.8" stroke="#a7adc6" stroke-width="3.6" stroke-linecap="round" opacity="0.92"/><line x1="1103.2" y1="171.9" x2="1045.8" y2="239.9" stroke="#ffd166" stroke-width="3.6" stroke-linecap="round" opacity="0.92"/><line x1="1094.0" y1="164.1" x2="1036.6" y2="232.2" stroke="#ef476f" stroke-width="3.6" stroke-linecap="round" opacity="0.92"/><line x1="302.9" y1="119.7" x2="412.7" y2="240.0" stroke="#a7adc6" stroke-width="5.2" stroke-linecap="round" opacity="0.92"/><line x1="302.9" y1="119.7" x2="156.0" y2="184.5" stroke="#a7adc6" stroke-width="5.2" stroke-linecap="round" opacity="0.92"/><line x1="302.9" y1="119.7" x2="161.1" y2="135.6" stroke="#a7adc6" stroke-width="4.4" stroke-linecap="round" opacity="0.92"/><line x1="302.9" y1="119.7" x2="547.8" y2="129.7" stroke="#f5f6ff" stroke-width="6.8" stroke-linecap="round" opacity="0.92"/><line x1="1016.6" y1="439.0" x2="1052.1" y2="582.3" stroke="#ff5d8f" stroke-width="5.2" stroke-linecap="round" opacity="0.92"/><line x1="1016.6" y1="439.0" x2="986.1" y2="379.7" stroke="#a7adc6" stroke-width="3.6" stroke-linecap="round" opacity="0.92"/><line x1="806.0" y1="290.2" x2="671.2" y2="234.8" stroke="#ef476f" stroke-width="4.4" stroke-linecap="round" opacity="0.92"/><line x1="806.0" y1="290.2" x2="638.8" y2="318.1" stroke="#4cc9f0" stroke-width="5.2" stroke-linecap="round" opacity="0.92"/><line x1="805.5" y1="284.2" x2="948.4" y2="271.0" stroke="#5b5f7a" stroke-width="4.4" stroke-linecap="round" opacity="0.92"/><line x1="806.6" y1="296.2" x2="949.5" y2="282.9" stroke="#ff9f43" stroke-width="4.4" stroke-linecap="round" opacity="0.92"/><line x1="811.0" y1="293.6" x2="759.8" y2="369.1" stroke="#06d6a0" stroke-width="3.6" stroke-linecap="round" opacity="0.92"/><line x1="801.0" y1="286.9" x2="749.9" y2="362.4" stroke="#f5f6ff" stroke-width="3.6" stroke-linecap="round" opacity="0.92"/><line x1="806.0" y1="290.2" x2="930.6" y2="193.9" stroke="#f5f6ff" stroke-width="5.2" stroke-linecap="round" opacity="0.92"/><line x1="661.1" y1="523.0" x2="463.0" y2="545.0" stroke="#ef476f" stroke-width="5.2" stroke-linecap="round" opacity="0.92"/><line x1="664.8" y1="518.3" x2="710.5" y2="554.3" stroke="#a7adc6" stroke-width="2.8" stroke-linecap="round" opacity="0.92"/><line x1="657.4" y1="527.7" x2="703.1" y2="563.7" stroke="#a7adc6" stroke-width="2.8" stroke-linecap="round" opacity="0.92"/><line x1="661.1" y1="523.0" x2="738.0" y2="446.5" stroke="#a7adc6" stroke-width="3.6" stroke-linecap="round" opacity="0.92"/><line x1="655.3" y1="524.5" x2="633.8" y2="444.5" stroke="#a7adc6" stroke-width="3.6" stroke-linecap="round" opacity="0.92"/><line x1="666.9" y1="521.4" x2="645.4" y2="441.4" stroke="#a7adc6" stroke-width="3.6" stroke-linecap="round" opacity="0.92"/><line x1="477.1" y1="380.3" x2="412.7" y2="240.0" stroke="#06d6a0" stroke-width="5.2" stroke-linecap="round" opacity="0.92"/><line x1="476.6" y1="374.4" x2="661.0" y2="358.2" stroke="#5b5f7a" stroke-width="5.2" stroke-linecap="round" opacity="0.92"/><line x1="477.6" y1="386.3" x2="662.0" y2="370.1" stroke="#ff9f43" stroke-width="5.2" stroke-linecap="round" opacity="0.92"/><line x1="477.1" y1="380.3" x2="639.6" y2="442.9" stroke="#ef476f" stroke-width="5.2" stroke-linecap="round" opacity="0.92"/><line x1="477.1" y1="380.3" x2="638.8" y2="318.1" stroke="#ff5d8f" stroke-width="5.2" stroke-linecap="round" opacity="0.92"/><line x1="477.1" y1="380.3" x2="333.0" y2="511.0" stroke="#f5f6ff" stroke-width="6.0" stroke-linecap="round" opacity="0.92"/><line x1="475.9" y1="386.2" x2="333.0" y2="358.0" stroke="#ef476f" stroke-width="4.4" stroke-linecap="round" opacity="0.92"/><line x1="478.3" y1="374.5" x2="335.3" y2="346.3" stroke="#ffd166" stroke-width="4.4" stroke-linecap="round" opacity="0.92"/><line x1="477.1" y1="380.3" x2="468.9" y2="462.7" stroke="#a7adc6" stroke-width="3.6" stroke-linecap="round" opacity="0.92"/><line x1="671.2" y1="234.8" x2="412.7" y2="240.0" stroke="#ff9f43" stroke-width="6.8" stroke-linecap="round" opacity="0.92"/><line x1="676.8" y1="237.0" x2="644.4" y2="320.3" stroke="#a7adc6" stroke-width="3.6" stroke-linecap="round" opacity="0.92"/><line x1="665.7" y1="232.6" x2="633.2" y2="315.9" stroke="#a7adc6" stroke-width="3.6" stroke-linecap="round" opacity="0.92"/><line x1="671.2" y1="234.8" x2="811.1" y2="174.8" stroke="#a7adc6" stroke-width="4.4" stroke-linecap="round" opacity="0.92"/><line x1="671.2" y1="234.8" x2="930.6" y2="193.9" stroke="#ff5d8f" stroke-width="6.8" stroke-linecap="round" opacity="0.92"/><line x1="671.2" y1="234.8" x2="547.8" y2="129.7" stroke="#5b5f7a" stroke-width="5.2" stroke-linecap="round" opacity="0.92"/><line x1="463.0" y1="545.0" x2="706.8" y2="559.0" stroke="#06d6a0" stroke-width="6.8" stroke-linecap="round" opacity="0.92"/><line x1="463.0" y1="545.0" x2="202.1" y2="504.8" stroke="#5b5f7a" stroke-width="6.8" stroke-linecap="round" opacity="0.92"/><line x1="463.0" y1="545.0" x2="639.6" y2="442.9" stroke="#ffd166" stroke-width="6.0" stroke-linecap="round" opacity="0.92"/><line x1="463.0" y1="545.0" x2="333.0" y2="511.0" stroke="#a7adc6" stroke-width="4.4" stroke-linecap="round" opacity="0.92"/><line x1="463.0" y1="545.0" x2="468.9" y2="462.7" stroke="#a7adc6" stroke-width="3.6" stroke-linecap="round" opacity="0.92"/><line x1="412.7" y1="240.0" x2="638.8" y2="318.1" stroke="#ef476f" stroke-width="6.0" stroke-linecap="round" opacity="0.92"/><line x1="412.7" y1="240.0" x2="334.1" y2="352.1" stroke="#ff5d8f" stroke-width="4.4" stroke-linecap="round" opacity="0.92"/><line x1="412.7" y1="240.0" x2="156.0" y2="184.5" stroke="#ffd166" stroke-width="6.8" stroke-linecap="round" opacity="0.92"/><line x1="412.7" y1="240.0" x2="547.8" y2="129.7" stroke="#4cc9f0" stroke-width="5.2" stroke-linecap="round" opacity="0.92"/><line x1="706.8" y1="559.0" x2="808.4" y2="548.3" stroke="#a7adc6" stroke-width="3.6" stroke-linecap="round" opacity="0.92"/><line x1="667.3" y1="365.7" x2="645.4" y2="444.5" stroke="#a7adc6" stroke-width="3.6" stroke-linecap="round" opacity="0.92"/><line x1="655.7" y1="362.5" x2="633.8" y2="441.3" stroke="#a7adc6" stroke-width="3.6" stroke-linecap="round" opacity="0.92"/><line x1="656.1" y1="366.8" x2="633.4" y2="320.7" stroke="#a7adc6" stroke-width="2.8" stroke-linecap="round" opacity="0.92"/><line x1="666.9" y1="361.5" x2="644.2" y2="315.4" stroke="#a7adc6" stroke-width="2.8" stroke-linecap="round" opacity="0.92"/><line x1="661.6" y1="358.1" x2="754.9" y2="359.8" stroke="#4cc9f0" stroke-width="3.6" stroke-linecap="round" opacity="0.92"/><line x1="661.4" y1="370.1" x2="754.7" y2="371.8" stroke="#ff5d8f" stroke-width="3.6" stroke-linecap="round" opacity="0.92"/><line x1="272.4" y1="452.0" x2="202.1" y2="504.8" stroke="#a7adc6" stroke-width="3.6" stroke-linecap="round" opacity="0.92"/><line x1="272.4" y1="452.0" x2="334.1" y2="352.1" stroke="#ff9f43" stroke-width="4.4" stroke-linecap="round" opacity="0.92"/><line x1="738.0" y1="446.5" x2="858.7" y2="400.4" stroke="#f5f6ff" stroke-width="4.4" stroke-linecap="round" opacity="0.92"/><line x1="738.0" y1="446.5" x2="808.4" y2="548.3" stroke="#06d6a0" stroke-width="4.4" stroke-linecap="round" opacity="0.92"/><line x1="738.0" y1="446.5" x2="639.6" y2="442.9" stroke="#a7adc6" stroke-width="3.6" stroke-linecap="round" opacity="0.92"/><line x1="738.0" y1="446.5" x2="754.8" y2="365.8" stroke="#a7adc6" stroke-width="3.6" stroke-linecap="round" opacity="0.92"/><line x1="202.1" y1="504.8" x2="333.0" y2="511.0" stroke="#a7adc6" stroke-width="4.4" stroke-linecap="round" opacity="0.92"/><line x1="197.7" y1="508.9" x2="112.1" y2="414.5" stroke="#ffd166" stroke-width="4.4" stroke-linecap="round" opacity="0.92"/><line x1="206.6" y1="500.8" x2="121.0" y2="406.5" stroke="#ff5d8f" stroke-width="4.4" stroke-linecap="round" opacity="0.92"/><line x1="1052.1" y1="582.3" x2="808.4" y2="548.3" stroke="#ef476f" stroke-width="6.8" stroke-linecap="round" opacity="0.92"/><line x1="1020.5" y1="115.8" x2="1041.2" y2="236.1" stroke="#4cc9f0" stroke-width="4.4" stroke-linecap="round" opacity="0.92"/><line x1="1020.5" y1="115.8" x2="811.1" y2="174.8" stroke="#5b5f7a" stroke-width="6.0" stroke-linecap="round" opacity="0.92"/><line x1="1020.5" y1="115.8" x2="930.6" y2="193.9" stroke="#a7adc6" stroke-width="4.4" stroke-linecap="round" opacity="0.92"/><line x1="858.7" y1="400.4" x2="949.0" y2="276.9" stroke="#ffd166" stroke-width="5.2" stroke-linecap="round" opacity="0.92"/><line x1="858.7" y1="400.4" x2="986.1" y2="379.7" stroke="#5b5f7a" stroke-width="4.4" stroke-linecap="round" opacity="0.92"/><line x1="858.7" y1="400.4" x2="754.8" y2="365.8" stroke="#a7adc6" stroke-width="3.6" stroke-linecap="round" opacity="0.92"/><line x1="1043.6" y1="241.6" x2="951.4" y2="282.4" stroke="#f5f6ff" stroke-width="3.6" stroke-linecap="round" opacity="0.92"/><line x1="1038.7" y1="230.6" x2="946.6" y2="271.4" stroke="#06d6a0" stroke-width="3.6" stroke-linecap="round" opacity="0.92"/><line x1="1047.1" y1="235.5" x2="1055.7" y2="317.8" stroke="#ff9f43" stroke-width="3.6" stroke-linecap="round" opacity="0.92"/><line x1="1035.2" y1="236.7" x2="1043.8" y2="319.0" stroke="#5b5f7a" stroke-width="3.6" stroke-linecap="round" opacity="0.92"/><line x1="639.6" y1="442.9" x2="468.9" y2="462.7" stroke="#4cc9f0" stroke-width="4.4" stroke-linecap="round" opacity="0.92"/><line x1="333.0" y1="511.0" x2="468.9" y2="462.7" stroke="#a7adc6" stroke-width="4.4" stroke-linecap="round" opacity="0.92"/><line x1="949.0" y1="276.9" x2="986.1" y2="379.7" stroke="#a7adc6" stroke-width="3.6" stroke-linecap="round" opacity="0.92"/><line x1="949.0" y1="276.9" x2="754.8" y2="365.8" stroke="#06d6a0" stroke-width="6.0" stroke-linecap="round" opacity="0.92"/><line x1="949.0" y1="276.9" x2="930.6" y2="193.9" stroke="#a7adc6" stroke-width="3.6" stroke-linecap="round" opacity="0.92"/><line x1="949.0" y1="276.9" x2="1049.8" y2="318.4" stroke="#a7adc6" stroke-width="3.6" stroke-linecap="round" opacity="0.92"/><line x1="132.2" y1="231.9" x2="334.1" y2="352.1" stroke="#4cc9f0" stroke-width="6.8" stroke-linecap="round" opacity="0.92"/><line x1="138.2" y1="232.4" x2="122.5" y2="411.0" stroke="#06d6a0" stroke-width="6.0" stroke-linecap="round" opacity="0.92"/><line x1="126.2" y1="231.3" x2="110.6" y2="410.0" stroke="#ff5d8f" stroke-width="6.0" stroke-linecap="round" opacity="0.92"/><line x1="126.8" y1="229.2" x2="150.7" y2="181.8" stroke="#a7adc6" stroke-width="2.8" stroke-linecap="round" opacity="0.92"/><line x1="137.5" y1="234.6" x2="161.4" y2="187.2" stroke="#a7adc6" stroke-width="2.8" stroke-linecap="round" opacity="0.92"/><line x1="981.9" y1="375.4" x2="1045.6" y2="314.1" stroke="#a7adc6" stroke-width="3.6" stroke-linecap="round" opacity="0.92"/><line x1="990.3" y1="384.0" x2="1053.9" y2="322.7" stroke="#a7adc6" stroke-width="3.6" stroke-linecap="round" opacity="0.92"/><line x1="335.7" y1="357.9" x2="118.1" y2="416.3" stroke="#ff9f43" stroke-width="6.0" stroke-linecap="round" opacity="0.92"/><line x1="332.6" y1="346.3" x2="115.0" y2="404.7" stroke="#f5f6ff" stroke-width="6.0" stroke-linecap="round" opacity="0.92"/><line x1="811.1" y1="174.8" x2="930.6" y2="193.9" stroke="#a7adc6" stroke-width="3.6" stroke-linecap="round" opacity="0.92"/><line x1="811.1" y1="174.8" x2="547.8" y2="129.7" stroke="#a7adc6" stroke-width="6.8" stroke-linecap="round" opacity="0.92"/><line x1="150.0" y1="183.9" x2="155.1" y2="135.0" stroke="#a7adc6" stroke-width="2.8" stroke-linecap="round" opacity="0.92"/><line x1="162.0" y1="185.1" x2="167.1" y2="136.2" stroke="#a7adc6" stroke-width="2.8" stroke-linecap="round" opacity="0.92"/><circle cx="914.2" cy="432.5" r="5.5" fill="#0f1020" stroke="#ffd166" stroke-width="2"/><text x="922.2" y="436.5" font-family="Nunito Variable, Segoe UI, system-ui, sans-serif" font-size="12" fill="#f5f6ff">Atlanta</text><circle cx="1098.6" cy="168.0" r="5.5" fill="#0f1020" stroke="#ffd166" stroke-width="2"/><text x="1106.6" y="172.0" font-family="Nunito Variable, Segoe UI, system-ui, sans-serif" font-size="12" fill="#f5f6ff">Boston</text><circle cx="302.9" cy="119.7" r="5.5" fill="#0f1020" stroke="#ffd166" stroke-width="2"/><text x="310.9" y="123.7" font-family="Nunito Variable, Segoe UI, system-ui, sans-serif" font-size="12" fill="#f5f6ff">Calgary</text><circle cx="1016.6" cy="439.0" r="5.5" fill="#0f1020" stroke="#ffd166" stroke-width="2"/><text x="1024.6" y="443.0" font-family="Nunito Variable, Segoe UI, system-ui, sans-serif" font-size="12" fill="#f5f6ff">Charleston</text><circle cx="806.0" cy="290.2" r="5.5" fill="#0f1020" stroke="#ffd166" stroke-width="2"/><text x="814.0" y="294.2" font-family="Nunito Variable, Segoe UI, system-ui, sans-serif" font-size="12" fill="#f5f6ff">Chicago</text><circle cx="661.1" cy="523.0" r="5.5" fill="#0f1020" stroke="#ffd166" stroke-width="2"/><text x="669.1" y="527.0" font-family="Nunito Variable, Segoe UI, system-ui, sans-serif" font-size="12" fill="#f5f6ff">Dallas</text><circle cx="477.1" cy="380.3" r="5.5" fill="#0f1020" stroke="#ffd166" stroke-width="2"/><text x="485.1" y="384.3" font-family="Nunito Variable, Segoe UI, system-ui, sans-serif" font-size="12" fill="#f5f6ff">Denver</text><circle cx="671.2" cy="234.8" r="5.5" fill="#0f1020" stroke="#ffd166" stroke-width="2"/><text x="679.2" y="238.8" font-family="Nunito Variable, Segoe UI, system-ui, sans-serif" font-size="12" fill="#f5f6ff">Duluth</text><circle cx="463.0" cy="545.0" r="5.5" fill="#0f1020" stroke="#ffd166" stroke-width="2"/><text x="471.0" y="549.0" font-family="Nunito Variable, Segoe UI, system-ui, sans-serif" font-size="12" fill="#f5f6ff">El Paso</text><circle cx="412.7" cy="240.0" r="5.5" fill="#0f1020" stroke="#ffd166" stroke-width="2"/><text x="420.7" y="244.0" font-family="Nunito Variable, Segoe UI, system-ui, sans-serif" font-size="12" fill="#f5f6ff">Helena</text><circle cx="706.8" cy="559.0" r="5.5" fill="#0f1020" stroke="#ffd166" stroke-width="2"/><text x="714.8" y="563.0" font-family="Nunito Variable, Segoe UI, system-ui, sans-serif" font-size="12" fill="#f5f6ff">Houston</text><circle cx="661.5" cy="364.1" r="5.5" fill="#0f1020" stroke="#ffd166" stroke-width="2"/><text x="669.5" y="368.1" font-family="Nunito Variable, Segoe UI, system-ui, sans-serif" font-size="12" fill="#f5f6ff">Kansas City</text><circle cx="272.4" cy="452.0" r="5.5" fill="#0f1020" stroke="#ffd166" stroke-width="2"/><text x="280.4" y="456.0" font-family="Nunito Variable, Segoe UI, system-ui, sans-serif" font-size="12" fill="#f5f6ff">Las Vegas</text><circle cx="738.0" cy="446.5" r="5.5" fill="#0f1020" stroke="#ffd166" stroke-width="2"/><text x="746.0" y="450.5" font-family="Nunito Variable, Segoe UI, system-ui, sans-serif" font-size="12" fill="#f5f6ff">Little Rock</text><circle cx="202.1" cy="504.8" r="5.5" fill="#0f1020" stroke="#ffd166" stroke-width="2"/><text x="210.1" y="508.8" font-family="Nunito Variable, Segoe UI, system-ui, sans-serif" font-size="12" fill="#f5f6ff">Los Angeles</text><circle cx="1052.1" cy="582.3" r="5.5" fill="#0f1020" stroke="#ffd166" stroke-width="2"/><text x="1060.1" y="586.3" font-family="Nunito Variable, Segoe UI, system-ui, sans-serif" font-size="12" fill="#f5f6ff">Miami</text><circle cx="1020.5" cy="115.8" r="5.5" fill="#0f1020" stroke="#ffd166" stroke-width="2"/><text x="1028.5" y="119.8" font-family="Nunito Variable, Segoe UI, system-ui, sans-serif" font-size="12" fill="#f5f6ff">Montreal</text><circle cx="858.7" cy="400.4" r="5.5" fill="#0f1020" stroke="#ffd166" stroke-width="2"/><text x="866.7" y="404.4" font-family="Nunito Variable, Segoe UI, system-ui, sans-serif" font-size="12" fill="#f5f6ff">Nashville</text><circle cx="808.4" cy="548.3" r="5.5" fill="#0f1020" stroke="#ffd166" stroke-width="2"/><text x="816.4" y="552.3" font-family="Nunito Variable, Segoe UI, system-ui, sans-serif" font-size="12" fill="#f5f6ff">New Orleans</text><circle cx="1041.2" cy="236.1" r="5.5" fill="#0f1020" stroke="#ffd166" stroke-width="2"/><text x="1049.2" y="240.1" font-family="Nunito Variable, Segoe UI, system-ui, sans-serif" font-size="12" fill="#f5f6ff">New York</text><circle cx="639.6" cy="442.9" r="5.5" fill="#0f1020" stroke="#ffd166" stroke-width="2"/><text x="647.6" y="446.9" font-family="Nunito Variable, Segoe UI, system-ui, sans-serif" font-size="12" fill="#f5f6ff">Oklahoma City</text><circle cx="638.8" cy="318.1" r="5.5" fill="#0f1020" stroke="#ffd166" stroke-width="2"/><text x="646.8" y="322.1" font-family="Nunito Variable, Segoe UI, system-ui, sans-serif" font-size="12" fill="#f5f6ff">Omaha</text><circle cx="333.0" cy="511.0" r="5.5" fill="#0f1020" stroke="#ffd166" stroke-width="2"/><text x="341.0" y="515.0" font-family="Nunito Variable, Segoe UI, system-ui, sans-serif" font-size="12" fill="#f5f6ff">Phoenix</text><circle cx="949.0" cy="276.9" r="5.5" fill="#0f1020" stroke="#ffd166" stroke-width="2"/><text x="957.0" y="280.9" font-family="Nunito Variable, Segoe UI, system-ui, sans-serif" font-size="12" fill="#f5f6ff">Pittsburgh</text><circle cx="132.2" cy="231.9" r="5.5" fill="#0f1020" stroke="#ffd166" stroke-width="2"/><text x="140.2" y="235.9" font-family="Nunito Variable, Segoe UI, system-ui, sans-serif" font-size="12" fill="#f5f6ff">Portland</text><circle cx="986.1" cy="379.7" r="5.5" fill="#0f1020" stroke="#ffd166" stroke-width="2"/><text x="994.1" y="383.7" font-family="Nunito Variable, Segoe UI, system-ui, sans-serif" font-size="12" fill="#f5f6ff">Raleigh</text><circle cx="754.8" cy="365.8" r="5.5" fill="#0f1020" stroke="#ffd166" stroke-width="2"/><text x="762.8" y="369.8" font-family="Nunito Variable, Segoe UI, system-ui, sans-serif" font-size="12" fill="#f5f6ff">Saint Louis</text><circle cx="334.1" cy="352.1" r="5.5" fill="#0f1020" stroke="#ffd166" stroke-width="2"/><text x="342.1" y="356.1" font-family="Nunito Variable, Segoe UI, system-ui, sans-serif" font-size="12" fill="#f5f6ff">Salt Lake City</text><circle cx="116.6" cy="410.5" r="5.5" fill="#0f1020" stroke="#ffd166" stroke-width="2"/><text x="124.6" y="414.5" font-family="Nunito Variable, Segoe UI, system-ui, sans-serif" font-size="12" fill="#f5f6ff">San Francisco</text><circle cx="468.9" cy="462.7" r="5.5" fill="#0f1020" stroke="#ffd166" stroke-width="2"/><text x="476.9" y="466.7" font-family="Nunito Variable, Segoe UI, system-ui, sans-serif" font-size="12" fill="#f5f6ff">Santa Fe</text><circle cx="811.1" cy="174.8" r="5.5" fill="#0f1020" stroke="#ffd166" stroke-width="2"/><text x="819.1" y="178.8" font-family="Nunito Variable, Segoe UI, system-ui, sans-serif" font-size="12" fill="#f5f6ff">Sault Ste. Marie</text><circle cx="156.0" cy="184.5" r="5.5" fill="#0f1020" stroke="#ffd166" stroke-width="2"/><text x="164.0" y="188.5" font-family="Nunito Variable, Segoe UI, system-ui, sans-serif" font-size="12" fill="#f5f6ff">Seattle</text><circle cx="930.6" cy="193.9" r="5.5" fill="#0f1020" stroke="#ffd166" stroke-width="2"/><text x="938.6" y="197.9" font-family="Nunito Variable, Segoe UI, system-ui, sans-serif" font-size="12" fill="#f5f6ff">Toronto</text><circle cx="161.1" cy="135.6" r="5.5" fill="#0f1020" stroke="#ffd166" stroke-width="2"/><text x="169.1" y="139.6" font-family="Nunito Variable, Segoe UI, system-ui, sans-serif" font-size="12" fill="#f5f6ff">Vancouver</text><circle cx="1049.8" cy="318.4" r="5.5" fill="#0f1020" stroke="#ffd166" stroke-width="2"/><text x="1057.8" y="322.4" font-family="Nunito Variable, Segoe UI, system-ui, sans-serif" font-size="12" fill="#f5f6ff">Washington</text><circle cx="547.8" cy="129.7" r="5.5" fill="#0f1020" stroke="#ffd166" stroke-width="2"/><text x="555.8" y="133.7" font-family="Nunito Variable, Segoe UI, system-ui, sans-serif" font-size="12" fill="#f5f6ff">Winnipeg</text></svg>
